<svg id="Layer_1" viewBox="0 0 24 24" xmlns="http://www.w3.org/2000/svg" data-name="Layer 1"><path d="m23 11h-4v-3.142c1.72-.447 3-1.999 3-3.858 0-2.206-1.794-4-4-4s-4 1.794-4 4c0 1.859 1.28 3.411 3 3.858v3.142h-10v-3.142c1.72-.447 3-1.999 3-3.858 0-2.206-1.794-4-4-4s-4 1.794-4 4c0 1.859 1.28 3.411 3 3.858v3.142h-4c-.552 0-1 .447-1 1s.448 1 1 1h10v3.142c-1.72.447-3 1.999-3 3.858 0 2.206 1.794 4 4 4s4-1.794 4-4c0-1.859-1.28-3.411-3-3.858v-3.142h10c.552 0 1-.447 1-1s-.448-1-1-1zm-7-7c0-1.103.897-2 2-2s2 .897 2 2-.897 2-2 2-2-.897-2-2zm-12 0c0-1.103.897-2 2-2s2 .897 2 2-.897 2-2 2-2-.897-2-2zm10 16c0 1.103-.897 2-2 2s-2-.897-2-2 .897-2 2-2 2 .897 2 2z"/></svg>